<svg width="63" height="15" fill="none" xmlns="http://www.w3.org/2000/svg"><path d="M.12 0H0v.122h.12V0zm36.429 13.279c0 .12.038.191.107.191a.32.32 0 00.151-.064L56.442.51c.332-.235.73-.355 1.134-.344h4.315C62.553.166 63 .612 63 1.28v8.34c0 1.007-.22 1.593-1.102 2.129l-5.235 3.187a.357.357 0 01-.176.064c-.064 0-.127-.051-.127-.236V5.036c0-.115-.031-.191-.107-.191a.294.294 0 00-.15.064l-14.35 9.434a1.908 1.908 0 01-1.103.338h-9.512c-.668 0-1.109-.446-1.109-1.122V1.543c0-.09-.038-.172-.113-.172a.307.307 0 00-.151.063l-9.468 5.75c-.095.064-.12.109-.12.153 0 .039.019.077.082.147l6.765 6.84c.088.09.151.16.151.236 0 .064-.1.115-.22.115h-6.11c-.48 0-.85-.07-1.11-.332l-4.1-4.143a.176.176 0 00-.126-.064.269.269 0 00-.126.038l-6.854 4.17c-.415.254-.699.325-1.108.325H1.115C.441 14.675 0 14.222 0 13.553V5.374C0 4.36.22 3.78 1.109 3.244l5.266-3.2A.269.269 0 016.514 0c.081 0 .126.083.126.268V11.22c0 .114.025.165.107.165a.375.375 0 00.157-.063L24.694.49c.34-.236.756-.35 1.171-.332h9.575c.662 0 1.109.447 1.109 1.116l-.006 12.004h.006z" fill="#131E29"/></svg>