<svg width="63" height="15" viewBox="0 0 63 15" fill="none" xmlns="http://www.w3.org/2000/svg">
<path d="M0.120688 0H0V0.122134H0.120688V0Z" fill="#131E29"/>
<path d="M36.5489 13.2788C36.5489 13.3999 36.5867 13.47 36.656 13.47C36.7127 13.4637 36.7631 13.4382 36.8072 13.4063L56.4424 0.509987C56.7741 0.27531 57.1716 0.154641 57.5762 0.165746H61.8913C62.5527 0.165746 63 0.611985 63 1.28134V9.61963C63 10.6269 62.7795 11.2133 61.8976 11.7488L56.6628 14.9363C56.6106 14.9729 56.5498 14.9949 56.4865 15C56.4235 15 56.3605 14.949 56.3605 14.7641V5.03612C56.3605 4.92138 56.329 4.84488 56.2534 4.84488C56.1981 4.85132 56.1457 4.87341 56.1022 4.90863L41.7522 14.3434C41.4247 14.5665 41.0404 14.6876 40.6498 14.6813H31.1378C30.4701 14.6813 30.0291 14.235 30.0291 13.5593V1.54271C30.0291 1.45346 29.9913 1.37059 29.9157 1.37059C29.8606 1.37768 29.8083 1.3997 29.7645 1.43434L20.2966 7.18445C20.2021 7.24819 20.1769 7.29282 20.1769 7.33744C20.1769 7.37569 20.1958 7.41394 20.2588 7.48406L27.0243 14.3243C27.1125 14.4135 27.1755 14.4836 27.1755 14.5601C27.1755 14.6239 27.0747 14.6749 26.955 14.6749H20.8446C20.3659 14.6749 19.9942 14.6048 19.7359 14.3434L15.635 10.1997C15.6195 10.1809 15.6003 10.1656 15.5786 10.1546C15.5569 10.1436 15.5332 10.1373 15.509 10.136C15.4646 10.1381 15.4213 10.1512 15.3831 10.1742L8.52935 14.3434C8.11359 14.5984 7.83012 14.6685 7.42066 14.6685H1.11499C0.440956 14.6749 0 14.2223 0 13.5529V5.37399C0 4.36039 0.220478 3.78028 1.10869 3.24479L6.37496 0.044624C6.41627 0.0172431 6.4642 0.00181225 6.51355 1.35119e-07C6.59544 1.35119e-07 6.63954 0.0828731 6.63954 0.267743V11.2197C6.63954 11.3345 6.66473 11.3855 6.74663 11.3855C6.80332 11.3791 6.85371 11.3536 6.90411 11.3217L24.6935 0.490863C25.0337 0.254994 25.4495 0.140247 25.8652 0.159371H35.4403C36.1017 0.159371 36.5489 0.60561 36.5489 1.27497L36.5426 13.2788H36.5489Z" fill="#131E29"/>
</svg>
